<?xml version="1.0" standalone="no"?>
<!DOCTYPE svg PUBLIC "-//W3C//DTD SVG 20010904//EN"
 "http://www.w3.org/TR/2001/REC-SVG-20010904/DTD/svg10.dtd">
<svg version="1.0" xmlns="http://www.w3.org/2000/svg"
 width="28.000000pt" height="28.000000pt" viewBox="0 0 28.000000 28.000000"
 preserveAspectRatio="xMidYMid meet">

<g transform="translate(0.000000,28.000000) scale(0.100000,-0.100000)"
fill="#000000" stroke="none">
<path d="M115 253 c-38 -10 -64 -35 -81 -78 -16 -43 -16 -45 7 -92 20 -39 31
-50 64 -61 103 -34 193 61 152 161 -22 52 -86 84 -142 70z m94 -52 c24 -22 31
-38 31 -66 0 -49 -44 -95 -92 -95 -75 1 -125 92 -80 146 42 52 96 57 141 15z"/>
<path d="M117 152 c-18 -20 -22 -42 -8 -42 5 0 14 7 21 15 12 14 15 14 30 0
21 -19 30 -19 30 -2 0 16 -31 47 -47 47 -5 0 -17 -8 -26 -18z"/>
</g>
</svg>
